<svg width="21" height="21" viewBox="0 0 21 21" fill="none" xmlns="http://www.w3.org/2000/svg">
  <g clip-path="url(#clip0)">
    <path d="M18.048 11.746V11.758H21V15.458H16.676C16.336 15.458 15.818 15.316 15.528 15.143L14.49 14.533C14.2 14.36 13.718 14.36 13.428 14.533L12.081 15.322C11.791 15.488 11.791 15.772 12.081 15.944L14.91 17.603C15.2 17.776 15.72 17.917 16.059 17.917H21V20.383C21 20.723 20.722 21 20.382 21H0.618C0.45435 20.9997 0.297464 20.9347 0.181652 20.8191C0.0658406 20.7034 0.000528544 20.5466 0 20.383V17.917H4.942C5.34347 17.9004 5.73596 17.793 6.09 17.603L15.528 12.06C15.818 11.888 16.337 11.746 16.676 11.746H18.048V11.746ZM18.048 5.695H21V9.43H16.058C15.6562 9.4472 15.2637 9.5556 14.91 9.747L5.472 15.344C5.11834 15.5354 4.72576 15.6438 4.324 15.661H0V11.926H4.942C5.34376 11.9088 5.73634 11.8004 6.09 11.609L15.528 6.012C15.8817 5.8206 16.2742 5.7122 16.676 5.695H18.048V5.695ZM20.382 0C20.722 0 21 0.278 21 0.605V3.075H16.058C15.6565 3.09162 15.264 3.19897 14.91 3.389L5.472 8.94C5.182 9.113 4.663 9.255 4.324 9.255H0V5.55H4.324C4.664 5.55 5.182 5.692 5.472 5.865L6.51 6.476C6.8 6.649 7.282 6.649 7.572 6.476L8.919 5.686C9.209 5.519 9.209 5.236 8.919 5.062L6.09 3.402C5.73568 3.21164 5.34286 3.10395 4.941 3.087H0V0.617C0.000790622 0.453432 0.0661867 0.296803 0.181942 0.181236C0.297697 0.0656681 0.454431 0.000525734 0.618 0L20.382 0V0Z" fill="black"/>
  </g>
  <defs>
    <clipPath id="clip0">
      <rect width="21" height="21" fill="white"/>
    </clipPath>
  </defs>
</svg>
